<svg width="300" height="300" viewBox="0 0 300 300" fill="none" xmlns="http://www.w3.org/2000/svg">
<g clip-path="url(#clip0_8_72)">
<mask id="mask0_8_72" style="mask-type:alpha" maskUnits="userSpaceOnUse" x="0" y="0" width="300" height="300">
<path d="M127.197 173.284C127.839 185.347 140.876 190.98 153.424 190.273C165.709 189.599 179.654 184.778 182.031 155.088C175.657 153.694 168.647 152.966 161.153 152.966C158.875 152.966 156.556 153.033 154.194 153.169C133.562 154.358 126.72 164.339 127.197 173.284Z" fill="black"/>
<path fill-rule="evenodd" clip-rule="evenodd" d="M70.3125 0C31.48 0 0 31.48 0 70.3125V229.688C0 268.52 31.48 300 70.3125 300H229.688C268.52 300 300 268.52 300 229.688V70.3125C300 31.48 268.52 0 229.688 0H70.3125ZM202.196 140.199C203.219 140.638 204.228 141.096 205.222 141.573C219.273 148.313 229.548 158.518 234.937 171.083C242.45 188.605 243.136 217.147 220.344 239.917C202.923 257.322 181.776 265.177 151.776 265.385H151.64C117.896 265.152 91.9472 253.796 74.5147 231.636C59.0022 211.916 51.0004 184.476 50.7316 150.081L50.7307 150L50.7316 149.919C51.0004 115.524 59.0022 88.0847 74.5147 68.3646C91.9472 46.2042 117.896 34.8492 151.64 34.6155H151.776C185.589 34.85 211.832 46.1619 229.775 68.2381C238.629 79.1295 245.135 92.2623 249.269 107.503L229.862 112.681C226.451 100.299 221.276 89.6799 214.413 81.2357C200.417 64.0162 179.322 55.1819 151.708 54.9766C124.293 55.1804 103.56 63.9723 90.0794 81.1091C77.4561 97.1559 70.9323 120.334 70.6889 150C70.9323 179.666 77.4561 202.844 90.0794 218.891C103.56 236.028 124.293 244.82 151.709 245.023C176.423 244.841 192.776 238.962 206.381 225.37C221.909 209.856 221.619 190.826 216.653 179.245C213.732 172.433 208.443 166.766 201.308 162.459C199.57 175.412 195.633 185.692 189.41 193.625C181.215 204.071 169.469 209.784 154.496 210.605C143.157 211.224 132.248 208.489 123.778 202.898C113.759 196.284 107.896 186.159 107.269 174.39C106.033 151.187 124.438 134.49 153.068 132.841C163.232 132.258 172.739 132.717 181.53 134.211C180.363 127.073 178.006 121.418 174.482 117.325C169.639 111.703 162.157 108.82 152.242 108.757C152.151 108.756 152.059 108.756 151.967 108.756C144.006 108.756 133.197 110.984 126.309 121.434L109.748 110.073C118.968 96.0829 133.948 88.3947 151.959 88.3947C152.096 88.3947 152.231 88.3947 152.368 88.3955C182.481 88.5878 200.415 107.378 202.196 140.199Z" fill="black"/>
</mask>
<g mask="url(#mask0_8_72)">
<path d="M229.688 0H70.3125C31.48 0 0 31.48 0 70.3125V229.688C0 268.52 31.48 300 70.3125 300H229.688C268.52 300 300 268.52 300 229.688V70.3125C300 31.48 268.52 0 229.688 0Z" fill="url(#paint0_radial_8_72)"/>
<path d="M229.688 0H70.3125C31.48 0 0 31.48 0 70.3125V229.688C0 268.52 31.48 300 70.3125 300H229.688C268.52 300 300 268.52 300 229.688V70.3125C300 31.48 268.52 0 229.688 0Z" fill="url(#paint1_radial_8_72)"/>
</g>
</g>
<defs>
<radialGradient id="paint0_radial_8_72" cx="0" cy="0" r="1" gradientUnits="userSpaceOnUse" gradientTransform="translate(79.6875 323.106) rotate(-90) scale(297.322 276.533)">
<stop stop-color="#FFDD55"/>
<stop offset="0.1" stop-color="#FFDD55"/>
<stop offset="0.5" stop-color="#FF543E"/>
<stop offset="1" stop-color="#C837AB"/>
</radialGradient>
<radialGradient id="paint1_radial_8_72" cx="0" cy="0" r="1" gradientUnits="userSpaceOnUse" gradientTransform="translate(-50.2512 21.6105) rotate(78.681) scale(132.905 547.837)">
<stop stop-color="#3771C8"/>
<stop offset="0.128" stop-color="#3771C8"/>
<stop offset="1" stop-color="#6600FF" stop-opacity="0"/>
</radialGradient>
<clipPath id="clip0_8_72">
<rect width="300" height="300" fill="white"/>
</clipPath>
</defs>
</svg>
