<svg width="300" height="300" viewBox="0 0 300 300" fill="none" xmlns="http://www.w3.org/2000/svg">
<mask id="mask0_2_26" style="mask-type:alpha" maskUnits="userSpaceOnUse" x="20" y="0" width="259" height="300">
<path d="M221.152 139.044C219.859 138.425 218.547 137.829 217.217 137.258C214.902 94.5909 191.587 70.1641 152.44 69.9141C152.263 69.913 152.087 69.913 151.909 69.913C128.494 69.913 109.02 79.9077 97.0344 98.0948L118.564 112.864C127.518 99.2786 141.571 96.3825 151.92 96.3825C152.039 96.3825 152.159 96.3825 152.278 96.3836C165.167 96.4658 174.894 100.213 181.189 107.522C185.77 112.843 188.834 120.195 190.352 129.475C178.923 127.532 166.564 126.935 153.352 127.693C116.132 129.837 92.2048 151.544 93.8119 181.706C94.6273 197.006 102.25 210.169 115.273 218.767C126.285 226.036 140.467 229.591 155.207 228.786C174.672 227.719 189.942 220.292 200.595 206.713C208.686 196.4 213.803 183.036 216.062 166.197C225.339 171.795 232.214 179.163 236.011 188.019C242.467 203.073 242.844 227.812 222.658 247.981C204.972 265.65 183.712 273.294 151.584 273.53C115.944 273.266 88.9903 261.836 71.4658 239.558C55.0555 218.697 46.5745 188.566 46.2581 150C46.5745 111.434 55.0555 81.3025 71.4658 60.4417C88.9903 38.1639 115.944 26.7344 151.583 26.4695C187.481 26.7364 214.905 38.2209 233.1 60.6062C242.022 71.5837 248.748 85.3888 253.183 101.485L278.413 94.7534C273.038 74.9409 264.58 57.8683 253.07 43.7094C229.744 15.0104 195.628 0.304919 151.671 0H151.495C107.628 0.303859 73.8939 15.0653 51.2317 43.8739C31.0655 69.51 20.6631 105.181 20.3136 149.895L20.3125 150L20.3136 150.105C20.6631 194.819 31.0655 230.491 51.2317 256.127C73.8939 284.934 107.628 299.697 151.495 300H151.671C190.672 299.73 218.162 289.519 240.809 266.892C270.439 237.291 269.547 200.186 259.781 177.408C252.775 161.073 239.417 147.807 221.152 139.044ZM153.813 202.355C137.501 203.273 120.554 195.952 119.718 180.269C119.099 168.641 127.993 155.666 154.814 154.12C157.886 153.943 160.9 153.856 163.861 153.856C173.603 153.856 182.717 154.803 191.003 156.614C187.912 195.211 169.784 201.478 153.813 202.355Z" fill="white"/>
</mask>
<g mask="url(#mask0_2_26)">
<path d="M229.688 0H70.3125C31.48 0 0 31.48 0 70.3125V229.688C0 268.52 31.48 300 70.3125 300H229.688C268.52 300 300 268.52 300 229.688V70.3125C300 31.48 268.52 0 229.688 0Z" fill="url(#paint0_radial_2_26)"/>
<path d="M229.688 0H70.3125C31.48 0 0 31.48 0 70.3125V229.688C0 268.52 31.48 300 70.3125 300H229.688C268.52 300 300 268.52 300 229.688V70.3125C300 31.48 268.52 0 229.688 0Z" fill="url(#paint1_radial_2_26)"/>
</g>
<defs>
<radialGradient id="paint0_radial_2_26" cx="0" cy="0" r="1" gradientUnits="userSpaceOnUse" gradientTransform="translate(79.6875 323.106) rotate(-90) scale(297.322 276.533)">
<stop stop-color="#FFDD55"/>
<stop offset="0.1" stop-color="#FFDD55"/>
<stop offset="0.5" stop-color="#FF543E"/>
<stop offset="1" stop-color="#C837AB"/>
</radialGradient>
<radialGradient id="paint1_radial_2_26" cx="0" cy="0" r="1" gradientUnits="userSpaceOnUse" gradientTransform="translate(-50.2512 21.6105) rotate(78.681) scale(132.905 547.837)">
<stop stop-color="#3771C8"/>
<stop offset="0.128" stop-color="#3771C8"/>
<stop offset="1" stop-color="#6600FF" stop-opacity="0"/>
</radialGradient>
</defs>
</svg>
